<?xml version="1.0" encoding="utf-8"?>
<svg version="1.1" xmlns:xlink="http://www.w3.org/1999/xlink" width="127px" height="30px" xmlns="http://www.w3.org/2000/svg">
  <defs>
    <mask fill="white" id="clip7">
      <path d="M 0 25  L 0 5  C 0 2.1999999999999886  2.165891472868262 0  4.922480620155039 0  L 122.07751937984497 0  C 124.83410852713175 0  127 2.1999999999999886  127 5  L 127 25  C 127 27.80000000000001  124.83410852713175 30  122.07751937984497 30  L 89.69853574504734 30  L 4.922480620155039 30  C 2.165891472868262 30  0 27.80000000000001  0 25  Z " fill-rule="evenodd" />
    </mask>
  </defs>
  <g transform="matrix(1 0 0 1 -89 -88 )">
    <path d="M 0 25  L 0 5  C 0 2.1999999999999886  2.165891472868262 0  4.922480620155039 0  L 122.07751937984497 0  C 124.83410852713175 0  127 2.1999999999999886  127 5  L 127 25  C 127 27.80000000000001  124.83410852713175 30  122.07751937984497 30  L 89.69853574504734 30  L 4.922480620155039 30  C 2.165891472868262 30  0 27.80000000000001  0 25  Z " fill-rule="nonzero" fill="#ffffff" stroke="none" transform="matrix(1 0 0 1 89 88 )" />
    <path d="M 0 25  L 0 5  C 0 2.1999999999999886  2.165891472868262 0  4.922480620155039 0  L 122.07751937984497 0  C 124.83410852713175 0  127 2.1999999999999886  127 5  L 127 25  C 127 27.80000000000001  124.83410852713175 30  122.07751937984497 30  L 89.69853574504734 30  L 4.922480620155039 30  C 2.165891472868262 30  0 27.80000000000001  0 25  Z " stroke-width="2" stroke="#797979" fill="none" transform="matrix(1 0 0 1 89 88 )" mask="url(#clip7)" />
  </g>
</svg>