<?xml version="1.0" encoding="utf-8"?>
<svg version="1.1" xmlns:xlink="http://www.w3.org/1999/xlink" width="9px" height="17px" xmlns="http://www.w3.org/2000/svg">
  <g transform="matrix(1 0 0 1 -670 -508 )">
    <path d="M 4.864248046875 15.986925223214286  L 8.770517578125 3.338052455357142  C 8.957871093749999 2.687650669642857  8.947382812499999 1.6634765624999992  8.745029296875 1.056760602678569  C 8.5531640625 0.47916852678571203  8.256357421875 0.47916852678571203  8.0660009765625 1.056760602678569  L 4.512011718750001 12.560172991071427  L 0.95947265625 1.0567606026785712  C 0.7721191406249999 0.40635881696428605  0.4573242187500004 0.3675585937500011  0.2549707031250006 0.9742271205357137  C 0.054111328125000746 1.5809905133928548  0.04212890625000032 2.600231584821431  0.2294824218749998 3.255518973214284  C 0.2369824218750003 3.284642857142855  0.2459765625000001 3.3089285714285688  0.2549707031250006 3.338052455357142  L 4.1597314453125005 15.986925223214286  C 4.354599609375 16.617879464285718  4.6693798828125 16.617879464285718  4.864248046875 15.986925223214286  Z " fill-rule="nonzero" fill="#000000" stroke="none" transform="matrix(1 0 0 1 670 508 )" />
  </g>
</svg>