<?xml version="1.0" encoding="utf-8"?>
<svg version="1.1" xmlns:xlink="http://www.w3.org/1999/xlink" width="63px" height="28px" xmlns="http://www.w3.org/2000/svg">
  <defs>
    <mask fill="white" id="clip5">
      <path d="M 0 23  L 0 5  C 0 2.1999999999999886  2.2000000000000455 0  5 0  L 33.8125 0  L 58 0  C 60.799999999999955 0  63 2.1999999999999886  63 5  L 63 23  C 63 25.80000000000001  60.799999999999955 28  58 28  L 5 28  C 2.2000000000000455 28  0 25.80000000000001  0 23  Z " fill-rule="evenodd" />
    </mask>
  </defs>
  <g transform="matrix(1 0 0 1 -1329 -156 )">
    <path d="M 0 23  L 0 5  C 0 2.1999999999999886  2.2000000000000455 0  5 0  L 33.8125 0  L 58 0  C 60.799999999999955 0  63 2.1999999999999886  63 5  L 63 23  C 63 25.80000000000001  60.799999999999955 28  58 28  L 5 28  C 2.2000000000000455 28  0 25.80000000000001  0 23  Z " fill-rule="nonzero" fill="#ffffff" stroke="none" transform="matrix(1 0 0 1 1329 156 )" />
    <path d="M 0 23  L 0 5  C 0 2.1999999999999886  2.2000000000000455 0  5 0  L 33.8125 0  L 58 0  C 60.799999999999955 0  63 2.1999999999999886  63 5  L 63 23  C 63 25.80000000000001  60.799999999999955 28  58 28  L 5 28  C 2.2000000000000455 28  0 25.80000000000001  0 23  Z " stroke-width="2" stroke="#797979" fill="none" transform="matrix(1 0 0 1 1329 156 )" mask="url(#clip5)" />
  </g>
</svg>