<?xml version="1.0" encoding="utf-8"?>
<svg version="1.1" xmlns:xlink="http://www.w3.org/1999/xlink" width="24px" height="14px" xmlns="http://www.w3.org/2000/svg">
  <g transform="matrix(1 0 0 1 -1215 -34 )">
    <path d="M 12.971328125 13.165703125  L 23.388046875 2.748984374999999  C 23.88765625 2.2133593749999996  23.8596875 1.3699218749999993  23.320078125 0.8702734374999981  C 22.8084375 0.39460937499999815  22.016953125 0.39460937499999815  21.509335937499998 0.8702734374999981  L 12.032031250000003 10.343671874999998  L 2.55859375 0.8702734374999999  C 2.0589843749999996 0.3346484375000003  1.219531250000001 0.3026953125000009  0.6799218750000016 0.8023046874999995  C 0.144296875000002 1.301992187499998  0.11234375000000085 2.141367187500002  0.6119531249999994 2.681015624999999  C 0.6319531250000008 2.7049999999999983  0.6559375000000003 2.724999999999998  0.6799218750000016 2.748984374999999  L 11.0926171875 13.165703125  C 11.612265625 13.685312500000002  12.4516796875 13.685312500000002  12.971328125 13.165703125  Z " fill-rule="nonzero" fill="#000000" stroke="none" transform="matrix(1 0 0 1 1215 34 )" />
  </g>
</svg>