<?xml version="1.0" encoding="utf-8"?>
<svg version="1.1" xmlns:xlink="http://www.w3.org/1999/xlink" width="19px" height="20px" xmlns="http://www.w3.org/2000/svg">
  <g transform="matrix(1 0 0 1 -456 -92 )">
    <path d="M 10.268968098958332 18.80814732142857  L 18.515537109375 3.927120535714285  C 18.911061197916666 3.161941964285714  18.888919270833334 1.957031249999999  18.461728515624998 1.24324776785714  C 18.0566796875 0.5637276785714259  17.430087890625 0.5637276785714259  17.028224283854165 1.24324776785714  L 9.525358072916669 14.776674107142856  L 2.025553385416667 1.2432477678571427  C 1.6300292968749996 0.4780691964285718  0.9654622395833342 0.43242187500000134  0.5382714843750012 1.146149553571428  C 0.11423502604166824 1.8599888392857113  0.088938802083334 3.0590959821428596  0.48446289062499953 3.8300223214285696  C 0.500296223958334 3.8642857142857117  0.5192838541666669 3.8928571428571397  0.5382714843750012 3.927120535714285  L 8.7816552734375 18.80814732142857  C 9.193043619791666 19.55044642857143  9.857579752604167 19.55044642857143  10.268968098958332 18.80814732142857  Z " fill-rule="nonzero" fill="#000000" stroke="none" transform="matrix(1 0 0 1 456 92 )" />
  </g>
</svg>