<?xml version="1.0" encoding="utf-8"?>
<svg version="1.1" xmlns:xlink="http://www.w3.org/1999/xlink" width="102px" height="40px" xmlns="http://www.w3.org/2000/svg">
  <defs>
    <mask fill="white" id="clip1">
      <path d="M 0 35  L 0 5  C 0 2.200000000000003  2.2000000000000455 0  5 0  L 19.820512820511567 0  L 52.512820512820554 0  L 64.47863247863097 0  L 97 0  C 99.79999999999995 0  102 2.200000000000003  102 5  L 102 35  C 102 37.80000000000001  99.79999999999995 40  97 40  L 67.2564102564113 40  L 5 40  C 2.2000000000000455 40  0 37.80000000000001  0 35  Z " fill-rule="evenodd" />
    </mask>
  </defs>
  <g transform="matrix(1 0 0 1 -527 -84 )">
    <path d="M 0 35  L 0 5  C 0 2.200000000000003  2.2000000000000455 0  5 0  L 19.820512820511567 0  L 52.512820512820554 0  L 64.47863247863097 0  L 97 0  C 99.79999999999995 0  102 2.200000000000003  102 5  L 102 35  C 102 37.80000000000001  99.79999999999995 40  97 40  L 67.2564102564113 40  L 5 40  C 2.2000000000000455 40  0 37.80000000000001  0 35  Z " fill-rule="nonzero" fill="#ffffff" stroke="none" transform="matrix(1 0 0 1 527 84 )" />
    <path d="M 0 35  L 0 5  C 0 2.200000000000003  2.2000000000000455 0  5 0  L 19.820512820511567 0  L 52.512820512820554 0  L 64.47863247863097 0  L 97 0  C 99.79999999999995 0  102 2.200000000000003  102 5  L 102 35  C 102 37.80000000000001  99.79999999999995 40  97 40  L 67.2564102564113 40  L 5 40  C 2.2000000000000455 40  0 37.80000000000001  0 35  Z " stroke-width="2" stroke="#797979" fill="none" transform="matrix(1 0 0 1 527 84 )" mask="url(#clip1)" />
  </g>
</svg>