<?xml version="1.0" encoding="utf-8"?>
<svg version="1.1" xmlns:xlink="http://www.w3.org/1999/xlink" width="100px" height="30px" xmlns="http://www.w3.org/2000/svg">
  <defs>
    <mask fill="white" id="clip2">
      <path d="M 0 25  L 0 5  C 0 2.1999999999999886  1.7054263565891827 0  3.875968992248062 0  L 96.12403100775194 0  C 98.29457364341081 0  100 2.1999999999999886  100 5  L 100 25  C 100 27.80000000000001  98.29457364341081 30  96.12403100775194 30  L 70.62876830318689 30  L 3.875968992248062 30  C 1.7054263565891827 30  0 27.80000000000001  0 25  Z " fill-rule="evenodd" />
    </mask>
  </defs>
  <g transform="matrix(1 0 0 1 -669 -157 )">
    <path d="M 0 25  L 0 5  C 0 2.1999999999999886  1.7054263565891827 0  3.875968992248062 0  L 96.12403100775194 0  C 98.29457364341081 0  100 2.1999999999999886  100 5  L 100 25  C 100 27.80000000000001  98.29457364341081 30  96.12403100775194 30  L 70.62876830318689 30  L 3.875968992248062 30  C 1.7054263565891827 30  0 27.80000000000001  0 25  Z " fill-rule="nonzero" fill="#ffffff" stroke="none" transform="matrix(1 0 0 1 669 157 )" />
    <path d="M 0 25  L 0 5  C 0 2.1999999999999886  1.7054263565891827 0  3.875968992248062 0  L 96.12403100775194 0  C 98.29457364341081 0  100 2.1999999999999886  100 5  L 100 25  C 100 27.80000000000001  98.29457364341081 30  96.12403100775194 30  L 70.62876830318689 30  L 3.875968992248062 30  C 1.7054263565891827 30  0 27.80000000000001  0 25  Z " stroke-width="2" stroke="#797979" fill="none" transform="matrix(1 0 0 1 669 157 )" mask="url(#clip2)" />
  </g>
</svg>