<?xml version="1.0" encoding="utf-8"?>
<svg version="1.1" xmlns:xlink="http://www.w3.org/1999/xlink" width="20px" height="20px" xmlns="http://www.w3.org/2000/svg">
  <g transform="matrix(1 0 0 1 -738 -162 )">
    <path d="M 10.809440104166665 18.80814732142857  L 19.4900390625 3.927120535714285  C 19.90638020833333 3.161941964285714  19.883072916666666 1.957031249999999  19.4333984375 1.24324776785714  C 19.00703125 0.5637276785714259  18.3474609375 0.5637276785714259  17.92444661458333 1.24324776785714  L 10.026692708333336 14.776674107142856  L 2.1321614583333335 1.2432477678571427  C 1.7158203124999996 0.4780691964285718  1.0162760416666676 0.43242187500000134  0.5666015625000013 1.146149553571428  C 0.12024739583333499 1.8599888392857113  0.09361979166666737 3.0590959821428596  0.5099609374999995 3.8300223214285696  C 0.5266276041666673 3.8642857142857117  0.5466145833333336 3.8928571428571397  0.5666015625000013 3.927120535714285  L 9.24384765625 18.80814732142857  C 9.676888020833333 19.55044642857143  10.376399739583333 19.55044642857143  10.809440104166665 18.80814732142857  Z " fill-rule="nonzero" fill="#000000" stroke="none" transform="matrix(1 0 0 1 738 162 )" />
  </g>
</svg>