<?xml version="1.0" encoding="utf-8"?>
<svg version="1.1" xmlns:xlink="http://www.w3.org/1999/xlink" width="16px" height="20px" xmlns="http://www.w3.org/2000/svg">
  <g transform="matrix(1 0 0 1 -1541 -162 )">
    <path d="M 8.647552083333332 18.80814732142857  L 15.59203125 3.927120535714285  C 15.925104166666666 3.161941964285714  15.906458333333333 1.957031249999999  15.546718749999998 1.24324776785714  C 15.205625 0.5637276785714259  14.67796875 0.5637276785714259  14.339557291666665 1.24324776785714  L 8.021354166666669 14.776674107142856  L 1.7057291666666667 1.2432477678571427  C 1.3726562499999997 0.4780691964285718  0.8130208333333341 0.43242187500000134  0.453281250000001 1.146149553571428  C 0.09619791666666799 1.8599888392857113  0.0748958333333339 3.0590959821428596  0.4079687499999996 3.8300223214285696  C 0.42130208333333385 3.8642857142857117  0.43729166666666686 3.8928571428571397  0.453281250000001 3.927120535714285  L 7.395078125 18.80814732142857  C 7.741510416666666 19.55044642857143  8.301119791666666 19.55044642857143  8.647552083333332 18.80814732142857  Z " fill-rule="nonzero" fill="#000000" stroke="none" transform="matrix(1 0 0 1 1541 162 )" />
  </g>
</svg>