<?xml version="1.0" encoding="utf-8"?>
<svg version="1.1" xmlns:xlink="http://www.w3.org/1999/xlink" width="18px" height="20px" xmlns="http://www.w3.org/2000/svg">
  <g transform="matrix(1 0 0 1 -1537 -503 )">
    <path d="M 9.72849609375 18.80814732142857  L 17.54103515625 3.927120535714285  C 17.915742187499998 3.161941964285714  17.894765624999998 1.957031249999999  17.49005859375 1.24324776785714  C 17.106328125 0.5637276785714259  16.51271484375 0.5637276785714259  16.132001953125 1.24324776785714  L 9.024023437500002 14.776674107142856  L 1.9189453125 1.2432477678571427  C 1.5442382812499997 0.4780691964285718  0.9146484375000008 0.43242187500000134  0.5099414062500012 1.146149553571428  C 0.10822265625000149 1.8599888392857113  0.08425781250000064 3.0590959821428596  0.4589648437499996 3.8300223214285696  C 0.4739648437500006 3.8642857142857117  0.4919531250000002 3.8928571428571397  0.5099414062500012 3.927120535714285  L 8.319462890625001 18.80814732142857  C 8.70919921875 19.55044642857143  9.338759765625 19.55044642857143  9.72849609375 18.80814732142857  Z " fill-rule="nonzero" fill="#000000" stroke="none" transform="matrix(1 0 0 1 1537 503 )" />
  </g>
</svg>