<?xml version="1.0" encoding="utf-8"?>
<svg version="1.1" xmlns:xlink="http://www.w3.org/1999/xlink" width="54px" height="27px" xmlns="http://www.w3.org/2000/svg">
  <defs>
    <mask fill="white" id="clip3">
      <path d="M 0 22.5  L 0 4.5  C 0 1.97999999999999  0.9209302325581586 0  2.0930232558139537 0  L 51.906976744186046 0  C 53.079069767441844 0  54 1.97999999999999  54 4.5  L 54 22.5  C 54 25.02000000000001  53.079069767441844 27  51.906976744186046 27  L 38.13953488372092 27  L 2.0930232558139537 27  C 0.9209302325581586 27  0 25.02000000000001  0 22.5  Z " fill-rule="evenodd" />
    </mask>
  </defs>
  <g transform="matrix(1 0 0 1 -727 -503 )">
    <path d="M 0 22.5  L 0 4.5  C 0 1.97999999999999  0.9209302325581586 0  2.0930232558139537 0  L 51.906976744186046 0  C 53.079069767441844 0  54 1.97999999999999  54 4.5  L 54 22.5  C 54 25.02000000000001  53.079069767441844 27  51.906976744186046 27  L 38.13953488372092 27  L 2.0930232558139537 27  C 0.9209302325581586 27  0 25.02000000000001  0 22.5  Z " fill-rule="nonzero" fill="#ffffff" stroke="none" transform="matrix(1 0 0 1 727 503 )" />
    <path d="M 0 22.5  L 0 4.5  C 0 1.97999999999999  0.9209302325581586 0  2.0930232558139537 0  L 51.906976744186046 0  C 53.079069767441844 0  54 1.97999999999999  54 4.5  L 54 22.5  C 54 25.02000000000001  53.079069767441844 27  51.906976744186046 27  L 38.13953488372092 27  L 2.0930232558139537 27  C 0.9209302325581586 27  0 25.02000000000001  0 22.5  Z " stroke-width="2" stroke="#797979" fill="none" transform="matrix(1 0 0 1 727 503 )" mask="url(#clip3)" />
  </g>
</svg>