<?xml version="1.0" encoding="utf-8"?>
<svg version="1.1" xmlns:xlink="http://www.w3.org/1999/xlink" width="9px" height="18px" xmlns="http://www.w3.org/2000/svg">
  <g transform="matrix(1 0 0 1 -768 -507 )">
    <path d="M 4.864248046875 16.927332589285715  L 8.770517578125 3.5344084821428563  C 8.957871093749999 2.8457477678571426  8.947382812499999 1.761328124999999  8.745029296875 1.118922991071426  C 8.5531640625 0.5073549107142833  8.256357421875 0.5073549107142833  8.0660009765625 1.118922991071426  L 4.512011718750001 13.29900669642857  L 0.95947265625 1.1189229910714285  C 0.7721191406249999 0.4302622767857146  0.4573242187500004 0.3891796875000012  0.2549707031250006 1.0315345982142852  C 0.054111328125000746 1.6739899553571402  0.04212890625000032 2.7531863839285737  0.2294824218749998 3.4470200892857124  C 0.2369824218750003 3.4778571428571405  0.2459765625000001 3.5035714285714255  0.2549707031250006 3.5344084821428563  L 4.1597314453125005 16.927332589285715  C 4.354599609375 17.595401785714287  4.6693798828125 17.595401785714287  4.864248046875 16.927332589285715  Z " fill-rule="nonzero" fill="#000000" stroke="none" transform="matrix(1 0 0 1 768 507 )" />
  </g>
</svg>