<?xml version="1.0" encoding="utf-8"?>
<svg version="1.1" xmlns:xlink="http://www.w3.org/1999/xlink" width="150px" height="40px" xmlns="http://www.w3.org/2000/svg">
  <defs>
    <mask fill="white" id="clip4">
      <path d="M 0 38  L 0 2  C 0 0.8799999999999955  0.8799999999999955 0  2 0  L 41.128205128203945 0  L 148 0  C 149.12 0  150 0.8799999999999955  150 2  L 150 38  C 150 39.120000000000005  149.12 40  148 40  L 78.30769230769229 40  L 2 40  C 0.8799999999999955 40  0 39.120000000000005  0 38  Z " fill-rule="evenodd" />
    </mask>
  </defs>
  <g transform="matrix(1 0 0 1 -89 -84 )">
    <path d="M 0 38  L 0 2  C 0 0.8799999999999955  0.8799999999999955 0  2 0  L 41.128205128203945 0  L 148 0  C 149.12 0  150 0.8799999999999955  150 2  L 150 38  C 150 39.120000000000005  149.12 40  148 40  L 78.30769230769229 40  L 2 40  C 0.8799999999999955 40  0 39.120000000000005  0 38  Z " fill-rule="nonzero" fill="#ffffff" stroke="none" transform="matrix(1 0 0 1 89 84 )" />
    <path d="M 0 38  L 0 2  C 0 0.8799999999999955  0.8799999999999955 0  2 0  L 41.128205128203945 0  L 148 0  C 149.12 0  150 0.8799999999999955  150 2  L 150 38  C 150 39.120000000000005  149.12 40  148 40  L 78.30769230769229 40  L 2 40  C 0.8799999999999955 40  0 39.120000000000005  0 38  Z " stroke-width="2" stroke="#a1a1a1" fill="none" transform="matrix(1 0 0 1 89 84 )" mask="url(#clip4)" />
  </g>
</svg>